<svg xmlns="http://www.w3.org/2000/svg" xmlns:xlink="http://www.w3.org/1999/xlink" width="20" height="20" viewBox="0 0 20 20"><defs><path id="wipoa" d="M964.13 938.05h-12.26a1.92 1.92 0 0 1-1.92-1.92v-8.18h2.99a5.48 5.48 0 1 0 10.13 0h2.98v8.18c0 1.06-.86 1.92-1.92 1.92zM958 926.48a3.52 3.52 0 1 1 0 7.03 3.52 3.52 0 0 1 0-7.03zm7.7-4.18v3.4h-3.4v-3.39h2.95zm-13.83-2.3a3.87 3.87 0 0 0-3.87 3.87v12.26a3.87 3.87 0 0 0 3.87 3.87h12.26a3.87 3.87 0 0 0 3.87-3.87v-12.26a3.87 3.87 0 0 0-3.87-3.87z"/></defs><g><g opacity=".68" transform="translate(-948 -920)"><use fill="#9c4ecb" xlink:href="#wipoa"/></g></g></svg>
