<svg xmlns="http://www.w3.org/2000/svg" xmlns:xlink="http://www.w3.org/1999/xlink" width="20" height="20" viewBox="0 0 20 20"><defs><path id="hg01a" d="M1060.58 940v-7.03c0-1.84-.7-3.1-2.21-3.1-1.17 0-1.81.85-2.11 1.67-.12.29-.1.7-.1 1.1V940h-4.38s.06-12.45 0-13.59h4.38v2.14c.26-.94 1.66-2.27 3.9-2.27 2.76 0 4.94 1.96 4.94 6.16V940zm-13.25-15.29a2.25 2.25 0 0 1-2.33-2.35c0-1.34.94-2.36 2.38-2.36s2.32 1.02 2.35 2.36c0 1.31-.91 2.35-2.38 2.35zm-1.83 1.7h3.9V940h-3.9z"/></defs><g><g opacity=".68" transform="translate(-1045 -920)"><use fill="#fff" xlink:href="#hg01a"/></g></g></svg>