<svg xmlns="http://www.w3.org/2000/svg" xmlns:xlink="http://www.w3.org/1999/xlink" width="21" height="18" viewBox="0 0 21 18"><defs><path id="p8z8a" d="M917.53 923.85a4.51 4.51 0 0 0 1.89-2.52c-.83.52-1.75.9-2.74 1.1a4.2 4.2 0 0 0-3.14-1.43 4.43 4.43 0 0 0-4.3 4.54c0 .36.03.7.1 1.04-3.58-.2-6.75-2-8.88-4.75a4.72 4.72 0 0 0 1.34 6.07 4.15 4.15 0 0 1-1.96-.57v.06c0 2.2 1.49 4.04 3.46 4.45a4.01 4.01 0 0 1-1.95.08 4.35 4.35 0 0 0 4.03 3.16 8.36 8.36 0 0 1-6.38 1.88 11.75 11.75 0 0 0 6.6 2.04c7.93 0 12.26-6.92 12.26-12.93l-.01-.59a9 9 0 0 0 2.15-2.35c-.77.36-1.6.6-2.47.72z"/></defs><g><g opacity=".68" transform="translate(-899 -921)"><use fill="#9c4ecb" xlink:href="#p8z8a"/></g></g></svg>
