<?xml version="1.0" encoding="UTF-8"?>
<svg width="29px" height="35px" viewBox="0 0 29 35" version="1.1" xmlns="http://www.w3.org/2000/svg" xmlns:xlink="http://www.w3.org/1999/xlink">
    <!-- Generator: Sketch 50 (54983) - http://www.bohemiancoding.com/sketch -->
    <title>Location</title>
    <desc>Created with Sketch.</desc>
    <defs></defs>
    <g id="Page-1" stroke="none" stroke-width="1" fill="none" fill-rule="evenodd">
        <g id="Studio-Contact" transform="translate(-250.000000, -832.000000)" fill="#63228B">
            <g id="Nav">
                <g id="Find-us" transform="translate(193.000000, 620.000000)">
                    <g id="Location" transform="translate(57.000000, 212.000000)">
                        <path d="M14.5,0 C6.77576471,0 0,6.62 0,14.1666667 C0,16.4841667 1.04144118,19.0075 1.91570588,20.7158333 C1.93958824,20.7633333 1.96602941,20.8091667 1.99417647,20.8533333 C2.08202941,20.9916667 4.18452941,24.2775 6.63673529,27.6225 C11.6264412,34.43 13.3118529,35 14.5,35 C15.6941176,35 17.3872059,34.43 22.3717941,27.6216667 C24.8222941,24.2758333 26.9188235,20.99 27.0066765,20.8516667 C27.0348235,20.8075 27.0612647,20.7625 27.0842941,20.7158333 C27.9585588,19.0075 29,16.4841667 29,14.1666667 C29,6.62 22.2242353,0 14.5,0 M14.5,1.66666667 C21.3303529,1.66666667 27.2941176,7.49333333 27.2941176,14.1666667 C27.2941176,16.105 26.3891471,18.3475 25.5583824,19.9708333 C25.5583824,19.9708333 17.0477353,33.3333333 14.5,33.3333333 C11.9735882,33.3333333 3.44161765,19.9708333 3.44161765,19.9708333 C2.61085294,18.3475 1.70588235,16.105 1.70588235,14.1666667 C1.70588235,7.49333333 7.66964706,1.66666667 14.5,1.66666667" id="Fill-1"></path>
                        <path d="M14.5,7.5 C11.2076471,7.5 8.52941176,10.1166667 8.52941176,13.3333333 C8.52941176,16.55 11.2076471,19.1666667 14.5,19.1666667 C17.7923529,19.1666667 20.4705882,16.55 20.4705882,13.3333333 C20.4705882,10.1166667 17.7923529,7.5 14.5,7.5 M14.5,9.16666667 C16.8558235,9.16666667 18.7647059,11.0325 18.7647059,13.3333333 C18.7647059,15.6341667 16.8558235,17.5 14.5,17.5 C12.1441765,17.5 10.2352941,15.6341667 10.2352941,13.3333333 C10.2352941,11.0325 12.1441765,9.16666667 14.5,9.16666667" id="Fill-3"></path>
                    </g>
                </g>
            </g>
        </g>
    </g>
</svg>