<?xml version="1.0" encoding="UTF-8"?>
<svg width="45px" height="42px" viewBox="0 0 45 42" version="1.1" xmlns="http://www.w3.org/2000/svg" xmlns:xlink="http://www.w3.org/1999/xlink">
    <!-- Generator: Sketch 50 (54983) - http://www.bohemiancoding.com/sketch -->
    <title>Chat Icon</title>
    <desc>Created with Sketch.</desc>
    <defs></defs>
    <g id="Page-1" stroke="none" stroke-width="1" fill="none" fill-rule="evenodd">
        <g id="Studio-Contact" transform="translate(-962.000000, -649.000000)" fill="#63228B">
            <g id="Nav">
                <g id="Send-message" transform="translate(908.000000, 620.000000)">
                    <g id="Chat-Icon" transform="translate(54.688925, 29.356037)">
                        <path d="M35.6190476,0 L8.38095238,0 C3.75990476,0 0,3.87234211 0,8.63157895 L0,25.8947368 C0,30.2882105 3.20466667,33.9264211 7.33333333,34.4583421 L7.33333333,38.8421053 C7.33333333,39.6912368 7.81733333,40.4626842 8.57057143,40.8101053 C8.84504762,40.9374211 9.13838095,41 9.42857143,41 C9.93142857,41 10.4290476,40.8133421 10.8208571,40.4551316 L17.2961905,34.5263158 L35.6190476,34.5263158 C40.2400952,34.5263158 44,30.6539737 44,25.8947368 L44,8.63157895 C44,3.87234211 40.2400952,0 35.6190476,0 M35.6190476,2.15789474 C39.0898095,2.15789474 41.9047619,5.05702632 41.9047619,8.63157895 L41.9047619,25.8947368 C41.9047619,29.4692895 39.0898095,32.3684211 35.6190476,32.3684211 L16.5,32.3684211 L9.42857143,38.8421053 L9.42857143,32.3684211 L8.38095238,32.3684211 C4.91019048,32.3684211 2.0952381,29.4692895 2.0952381,25.8947368 L2.0952381,8.63157895 C2.0952381,5.05702632 4.91019048,2.15789474 8.38095238,2.15789474 L35.6190476,2.15789474" id="Fill-1"></path>
                        <path d="M22,18.9230769 C21.1315238,18.9230769 20.4285714,18.2166154 20.4285714,17.3461538 C20.4285714,16.4756923 21.1315238,15.7692308 22,15.7692308 C22.8684762,15.7692308 23.5714286,16.4756923 23.5714286,17.3461538 C23.5714286,18.2166154 22.8684762,18.9230769 22,18.9230769 Z" id="Fill-3"></path>
                        <path d="M31.4285714,18.9230769 C30.5600952,18.9230769 29.8571429,18.2166154 29.8571429,17.3461538 C29.8571429,16.4756923 30.5600952,15.7692308 31.4285714,15.7692308 C32.2970476,15.7692308 33,16.4756923 33,17.3461538 C33,18.2166154 32.2970476,18.9230769 31.4285714,18.9230769 Z" id="Fill-5"></path>
                        <path d="M12.5714286,18.9230769 C11.704,18.9230769 11,18.2166154 11,17.3461538 C11,16.4756923 11.704,15.7692308 12.5714286,15.7692308 C13.4399048,15.7692308 14.1428571,16.4756923 14.1428571,17.3461538 C14.1428571,18.2166154 13.4399048,18.9230769 12.5714286,18.9230769 Z" id="Fill-7"></path>
                    </g>
                </g>
            </g>
        </g>
    </g>
</svg>