<svg id="Layer_1" xmlns="http://www.w3.org/2000/svg" viewBox="-273 391.9 48 58"><style>.st0{fill:#FFFFFF;}</style><path class="st0" d="M-235.5 434.1c-2.6 2.4-6 3.8-9.7 3.8-8.1 0-14.7-7-14.7-15.8 0-3.8 1.3-7.3 3.3-10 .5.3 1 .4 1.5.4 1.7 0 3.1-1.4 3.1-3.1s-1.4-3.1-3.1-3.1-3.1 1.4-3.1 3.1c0 .6.2 1.1.4 1.6-2.4 3-3.8 6.9-3.8 11.1 0 9.6 7.3 17.4 16.4 17.4 3.9 0 7.4-1.4 10.2-3.8l7.6 5.7c-.9.8-1.8 1.5-2.8 2.2-.6-.6-1.4-1-2.3-1-1.7 0-3.1 1.4-3.1 3.1 0 .2 0 .5.1.7-3 1.2-6.3 1.9-9.7 1.9-7.2 0-13.8-2.9-18.5-7.7-4.7-4.7-7.6-11.3-7.6-18.5 0-13.4 10.2-24.5 23.2-26 .4 1.2 1.6 2 2.9 2s2.5-.9 2.9-2.1c5.6.6 10.8 3 14.9 6.8-.9.7-3.6 2.7-5.6 4.2-.5-.5-1.3-.8-2-.8-1.3 0-2.4.8-2.9 1.9-.2.4-.2.8-.2 1.2 0 1.7 1.4 3.1 3.1 3.1.9 0 1.8-.4 2.3-1l.7-1.5c0-.2.1-.4.1-.6 0-.4-.1-.7-.2-1l7.1-5.4-.7-.7c-4.4-4.3-10.2-7.1-16.4-7.7-.3-1.5-1.6-2.6-3.1-2.6s-2.8 1.1-3.1 2.6c-13.8 1.6-24.6 13.3-24.6 27.6 0 15.3 12.5 27.8 27.8 27.8 3.6 0 7.2-.7 10.5-2 .4.4.9.7 1.5.9 0 0 .7.3 1.5 0 1.3-.4 2.3-1.6 2.3-3 0-.3 0-.5-.1-.7 1.4-.9 2.6-2 3.8-3.1l.6-.6-10.1-7.6-.4.3zm-21.3-25.1c.2-.8.9-1.4 1.8-1.4.6 0 1.2.3 1.5.8.2.3.3.6.3 1s-.1.7-.3 1c-.3.5-.9.8-1.5.8-.9 0-1.6-.6-1.8-1.4v-.4c-.1-.2-.1-.3 0-.4zm21.8 2.2c-1 0-1.8-.8-1.8-1.8s.8-1.8 1.8-1.8 1.8.8 1.8 1.8-.8 1.8-1.8 1.8zm-12-16.6c.2-.8.9-1.4 1.8-1.4 1 0 1.8.8 1.8 1.8 0 .7-.5 1.4-1.1 1.7-.1 0-.2.1-.3.1h-.4c-1 0-1.8-.8-1.8-1.8v-.4zm16.4 51.5c-.2.8-.9 1.4-1.8 1.4s-1.6-.6-1.8-1.4v-.4-.4c.2-.8.9-1.4 1.8-1.4 1 0 1.8.8 1.8 1.8v.4z"/></svg>